<svg width="512" height="108" viewBox="0 0 512 108" fill="none" xmlns="http://www.w3.org/2000/svg">
<path fill-rule="evenodd" clip-rule="evenodd" d="M225.612 1.29354C227.301 2.72443 227.51 5.25358 226.079 6.94255L189.788 49.7795H179.703L166.056 32.8643C164.666 31.1415 164.936 28.6181 166.659 27.2282C168.382 25.8382 170.905 26.1081 172.295 27.831L183.535 41.7633H186.073L219.963 1.76083C221.394 0.0718569 223.923 -0.137358 225.612 1.29354Z" fill="#FF7F33"/>
<path d="M25.9925 19.9249H33.2405L58.4832 78.9079H49.1525L43.2376 64.3288H15.1623L9.33065 78.9079H0L25.9925 19.9249ZM40.3217 57.3308L29.3249 30.2552H29.1583L17.9948 57.3308H40.3217Z" fill="black"/>
<path d="M101.419 19.9249H122.163C125.94 19.9249 129.05 20.4525 131.494 21.5077C133.938 22.5075 135.854 23.8126 137.242 25.4233C138.686 26.9784 139.686 28.7557 140.242 30.7551C140.797 32.699 141.075 34.5873 141.075 36.4201C141.075 38.2529 140.797 40.169 140.242 42.1685C139.686 44.1124 138.686 45.8896 137.242 47.5003C135.854 49.0554 133.938 50.3606 131.494 51.4158C129.05 52.4155 125.94 52.9154 122.163 52.9154H109.417V78.9079H101.419V19.9249ZM109.417 45.9174H119.914C121.469 45.9174 122.996 45.8063 124.496 45.5842C126.051 45.3065 127.412 44.8344 128.578 44.1679C129.8 43.5014 130.772 42.5572 131.494 41.3354C132.216 40.058 132.577 38.4195 132.577 36.4201C132.577 34.4207 132.216 32.81 131.494 31.5882C130.772 30.3108 129.8 29.3388 128.578 28.6723C127.412 28.0059 126.051 27.5616 124.496 27.3394C122.996 27.0617 121.469 26.9228 119.914 26.9228H109.417V45.9174Z" fill="black"/>
<path d="M271.592 80.4075C267.093 80.4075 262.955 79.6299 259.179 78.0748C255.402 76.4642 252.153 74.2704 249.431 71.4934C246.765 68.7164 244.655 65.4396 243.1 61.6629C241.6 57.8862 240.85 53.804 240.85 49.4164C240.85 45.0288 241.6 40.9466 243.1 37.1699C244.655 33.3932 246.765 30.1164 249.431 27.3394C252.153 24.5624 255.402 22.3964 259.179 20.8413C262.955 19.2306 267.093 18.4253 271.592 18.4253C276.09 18.4253 280.228 19.2306 284.005 20.8413C287.781 22.3964 291.003 24.5624 293.669 27.3394C296.39 30.1164 298.501 33.3932 300 37.1699C301.555 40.9466 302.333 45.0288 302.333 49.4164C302.333 53.804 301.555 57.8862 300 61.6629C298.501 65.4396 296.39 68.7164 293.669 71.4934C291.003 74.2704 287.781 76.4642 284.005 78.0748C280.228 79.6299 276.09 80.4075 271.592 80.4075ZM271.592 72.9096C274.98 72.9096 278.034 72.2987 280.756 71.0768C283.477 69.7994 285.81 68.1055 287.754 65.9949C289.698 63.8844 291.197 61.4129 292.252 58.5804C293.308 55.6924 293.835 52.6377 293.835 49.4164C293.835 46.1951 293.308 43.1682 292.252 40.3357C291.197 37.4476 289.698 34.9483 287.754 32.8378C285.81 30.7273 283.477 29.0611 280.756 27.8393C278.034 26.5618 274.98 25.9231 271.592 25.9231C268.204 25.9231 265.149 26.5618 262.428 27.8393C259.706 29.0611 257.374 30.7273 255.43 32.8378C253.486 34.9483 251.986 37.4476 250.931 40.3357C249.876 43.1682 249.348 46.1951 249.348 49.4164C249.348 52.6377 249.876 55.6924 250.931 58.5804C251.986 61.4129 253.486 63.8844 255.43 65.9949C257.374 68.1055 259.706 69.7994 262.428 71.0768C265.149 72.2987 268.204 72.9096 271.592 72.9096Z" fill="black"/>
<path d="M349.095 19.9249H369.839C373.616 19.9249 376.726 20.4525 379.17 21.5077C381.614 22.5075 383.53 23.8126 384.918 25.4233C386.362 26.9784 387.362 28.7557 387.918 30.7551C388.473 32.699 388.751 34.5873 388.751 36.4201C388.751 38.3085 388.417 40.1413 387.751 41.9185C387.084 43.6403 386.113 45.2231 384.835 46.6672C383.613 48.0557 382.086 49.2498 380.253 50.2495C378.476 51.1936 376.476 51.7768 374.255 51.999L391 78.9079H381.003L366.007 52.9154H357.093V78.9079H349.095V19.9249ZM357.093 45.9174H367.59C369.145 45.9174 370.673 45.8063 372.172 45.5842C373.727 45.3065 375.088 44.8344 376.254 44.1679C377.476 43.5014 378.448 42.5572 379.17 41.3354C379.892 40.058 380.253 38.4195 380.253 36.4201C380.253 34.4207 379.892 32.81 379.17 31.5882C378.448 30.3108 377.476 29.3388 376.254 28.6723C375.088 28.0059 373.727 27.5616 372.172 27.3394C370.673 27.0617 369.145 26.9228 367.59 26.9228H357.093V45.9174Z" fill="black"/>
<path fill-rule="evenodd" clip-rule="evenodd" d="M225.93 102.65C227.619 101.219 227.828 98.6898 226.397 97.001L191.375 55.6772H181.519L168.323 72.0286C166.933 73.7512 167.203 76.2746 168.925 77.6648C170.648 79.0551 173.171 78.7856 174.561 77.063L185.351 63.6934H187.661L220.281 102.184C221.712 103.873 224.242 104.081 225.93 102.65Z" fill="#00BDE1"/>
</svg>
