<?xml version="1.0" encoding="UTF-8"?>
<svg xmlns="http://www.w3.org/2000/svg" xmlns:xlink="http://www.w3.org/1999/xlink" viewBox="0 0 64 64" width="64px" height="64px">
<g id="surface177552697">
<path style=" stroke:none;fill-rule:nonzero;fill:rgb(89.411765%,0%,0%);fill-opacity:1;" d="M 15 43 C 15 43 49 46.421875 49 52 L 49 39 C 49 39 49 33.347656 15 30 Z M 15 43 "/>
<path style=" stroke:none;fill-rule:nonzero;fill:rgb(0%,0%,0%);fill-opacity:1;" d="M 49 53 C 48.449219 53 48 52.550781 48 52 C 48 49.207031 30.886719 45.605469 14.898438 43.996094 C 14.390625 43.941406 14 43.515625 14 43 L 14 30 C 14 29.71875 14.117188 29.449219 14.328125 29.257812 C 14.539062 29.070312 14.816406 28.976562 15.097656 29.003906 C 47.484375 32.191406 50 37.460938 50 39 L 50 52 C 50 52.550781 49.550781 53 49 53 Z M 16 42.101562 C 18.417969 42.367188 25.335938 43.175781 32.179688 44.425781 C 41.261719 46.085938 45.789062 47.675781 48 49.109375 L 48 39.113281 C 47.785156 38.671875 44.835938 34.050781 16 31.105469 Z M 48.015625 39.144531 Z M 48.015625 39.144531 "/>
<path style=" stroke:none;fill-rule:nonzero;fill:rgb(89.411765%,0%,0%);fill-opacity:1;" d="M 15 25 C 15 25 49 28.421875 49 34 L 49 21 C 49 21 49 15.347656 15 12 Z M 15 25 "/>
<path style=" stroke:none;fill-rule:nonzero;fill:rgb(0%,0%,0%);fill-opacity:1;" d="M 49 35 C 48.449219 35 48 34.550781 48 34 C 48 31.207031 30.886719 27.605469 14.898438 25.996094 C 14.390625 25.941406 14 25.515625 14 25 L 14 12 C 14 11.71875 14.117188 11.449219 14.328125 11.257812 C 14.539062 11.070312 14.816406 10.976562 15.097656 11.003906 C 47.484375 14.191406 50 19.460938 50 21 L 50 34 C 50 34.550781 49.550781 35 49 35 Z M 16 24.101562 C 18.417969 24.367188 25.335938 25.175781 32.179688 26.425781 C 41.261719 28.085938 45.789062 29.675781 48 31.109375 L 48 21.113281 C 47.785156 20.671875 44.835938 16.050781 16 13.105469 Z M 48.015625 21.144531 Z M 48.015625 21.144531 "/>
<path style=" stroke:none;fill-rule:nonzero;fill:rgb(97.647059%,0%,0%);fill-opacity:1;" d="M 15 48 C 15 48 49 44.578125 49 39 L 49 52 C 49 52 49 57.652344 15 61 Z M 15 48 "/>
<path style=" stroke:none;fill-rule:nonzero;fill:rgb(90.588236%,0%,0%);fill-opacity:1;" d="M 15 54.5 L 15 61 C 49 57.652344 49 52 49 52 L 49 45.726562 C 49 45.726562 48 51.125 15 54.5 Z M 15 54.5 "/>
<path style=" stroke:none;fill-rule:nonzero;fill:rgb(0%,0%,0%);fill-opacity:1;" d="M 15 62 C 14.753906 62 14.511719 61.90625 14.328125 61.742188 C 14.117188 61.550781 14 61.28125 14 61 L 14 48 C 14 47.484375 14.390625 47.058594 14.898438 47.003906 C 30.886719 45.394531 48 41.792969 48 39 C 48 38.449219 48.449219 38 49 38 C 49.550781 38 50 38.449219 50 39 L 50 52 C 50 53.539062 47.484375 58.808594 15.097656 61.996094 C 15.066406 62 15.03125 62 15 62 Z M 16 48.898438 L 16 59.894531 C 44.835938 56.949219 47.785156 52.328125 48 51.886719 L 48 41.890625 C 45.789062 43.328125 41.261719 44.917969 32.179688 46.574219 C 25.335938 47.824219 18.417969 48.632812 16 48.898438 Z M 48.015625 51.855469 Z M 48.015625 51.855469 "/>
<path style=" stroke:none;fill-rule:nonzero;fill:rgb(0%,0%,0%);fill-opacity:1;" d="M 22 54.691406 C 21.503906 54.691406 21.074219 54.324219 21.007812 53.820312 C 20.9375 53.273438 21.324219 52.773438 21.871094 52.699219 C 27.210938 52.015625 31.886719 51.21875 35.78125 50.339844 C 36.316406 50.21875 36.855469 50.558594 36.976562 51.097656 C 37.097656 51.636719 36.761719 52.171875 36.222656 52.292969 C 32.269531 53.183594 27.527344 53.988281 22.128906 54.683594 C 22.085938 54.691406 22.042969 54.691406 22 54.691406 Z M 22 54.691406 "/>
<path style=" stroke:none;fill-rule:nonzero;fill:rgb(0%,0%,0%);fill-opacity:1;" d="M 40 51.308594 C 39.5625 51.308594 39.164062 51.019531 39.039062 50.578125 C 38.886719 50.050781 39.195312 49.496094 39.726562 49.347656 C 40.433594 49.144531 41.09375 48.945312 41.691406 48.75 C 42.21875 48.578125 42.78125 48.867188 42.949219 49.390625 C 43.121094 49.914062 42.835938 50.480469 42.3125 50.652344 C 41.6875 50.855469 41.007812 51.0625 40.273438 51.269531 C 40.183594 51.296875 40.089844 51.308594 40 51.308594 Z M 40 51.308594 "/>
<path style=" stroke:none;fill-rule:nonzero;fill:rgb(97.647059%,0%,0%);fill-opacity:1;" d="M 15 30 C 15 30 49 26.578125 49 21 L 49 34 C 49 34 49 39.652344 15 43 Z M 15 30 "/>
<path style=" stroke:none;fill-rule:nonzero;fill:rgb(90.588236%,0%,0%);fill-opacity:1;" d="M 15 36.5 L 15 43 C 49 39.652344 49 34 49 34 L 49 27.726562 C 49 27.726562 48 33.125 15 36.5 Z M 15 36.5 "/>
<path style=" stroke:none;fill-rule:nonzero;fill:rgb(0%,0%,0%);fill-opacity:1;" d="M 15 44 C 14.753906 44 14.511719 43.90625 14.328125 43.742188 C 14.117188 43.550781 14 43.28125 14 43 L 14 30 C 14 29.484375 14.390625 29.058594 14.898438 29.003906 C 30.886719 27.394531 48 23.792969 48 21 C 48 20.449219 48.449219 20 49 20 C 49.550781 20 50 20.449219 50 21 L 50 34 C 50 35.539062 47.484375 40.808594 15.097656 43.996094 C 15.066406 44 15.03125 44 15 44 Z M 16 30.898438 L 16 41.894531 C 44.835938 38.949219 47.785156 34.328125 48 33.886719 L 48 23.890625 C 45.789062 25.328125 41.261719 26.917969 32.179688 28.574219 C 25.335938 29.824219 18.417969 30.632812 16 30.898438 Z M 48.015625 33.855469 Z M 48.015625 33.855469 "/>
<path style=" stroke:none;fill-rule:nonzero;fill:rgb(97.647059%,0%,0%);fill-opacity:1;" d="M 49 16 C 49 16 49 21.652344 15 25 L 15 12 C 15 12 47 9 49 3 Z M 49 16 "/>
<path style=" stroke:none;fill-rule:nonzero;fill:rgb(90.588236%,0%,0%);fill-opacity:1;" d="M 15 18.5 L 15 25 C 49 21.652344 49 16 49 16 L 49 9.574219 C 49 9.574219 47.875 15.375 15 18.5 Z M 15 18.5 "/>
<path style=" stroke:none;fill-rule:nonzero;fill:rgb(0%,0%,0%);fill-opacity:1;" d="M 15 26 C 14.753906 26 14.511719 25.90625 14.328125 25.742188 C 14.117188 25.550781 14 25.28125 14 25 L 14 12 C 14 11.484375 14.394531 11.054688 14.90625 11.003906 C 27.027344 9.867188 46.746094 6.601562 48.050781 2.683594 C 48.207031 2.21875 48.675781 1.933594 49.160156 2.011719 C 49.644531 2.089844 50 2.511719 50 3 L 50 16 C 50 17.539062 47.484375 22.808594 15.097656 25.996094 C 15.066406 26 15.03125 26 15 26 Z M 16 12.90625 L 16 23.894531 C 44.835938 20.949219 47.785156 16.328125 48 15.886719 L 48 5.570312 C 41.578125 10.058594 22.105469 12.300781 16 12.90625 Z M 48.015625 15.855469 Z M 48.015625 15.855469 "/>
<path style=" stroke:none;fill-rule:nonzero;fill:rgb(0%,0%,0%);fill-opacity:1;" d="M 22 19.742188 C 21.449219 19.742188 21 19.292969 21 18.742188 L 21 16.742188 C 21 16.1875 21.449219 15.742188 22 15.742188 C 22.550781 15.742188 23 16.1875 23 16.742188 L 23 18.742188 C 23 19.292969 22.550781 19.742188 22 19.742188 Z M 22 19.742188 "/>
<path style=" stroke:none;fill-rule:nonzero;fill:rgb(0%,0%,0%);fill-opacity:1;" d="M 27 19.054688 C 26.449219 19.054688 26 18.605469 26 18.054688 L 26 16.054688 C 26 15.5 26.449219 15.054688 27 15.054688 C 27.550781 15.054688 28 15.5 28 16.054688 L 28 18.054688 C 28 18.605469 27.550781 19.054688 27 19.054688 Z M 27 19.054688 "/>
<path style=" stroke:none;fill-rule:nonzero;fill:rgb(0%,0%,0%);fill-opacity:1;" d="M 32 18.21875 C 31.449219 18.21875 31 17.773438 31 17.21875 L 31 15.21875 C 31 14.667969 31.449219 14.21875 32 14.21875 C 32.550781 14.21875 33 14.667969 33 15.21875 L 33 17.21875 C 33 17.773438 32.550781 18.21875 32 18.21875 Z M 32 18.21875 "/>
<path style=" stroke:none;fill-rule:nonzero;fill:rgb(0%,0%,0%);fill-opacity:1;" d="M 37 17.160156 C 36.449219 17.160156 36 16.710938 36 16.160156 L 36 14.160156 C 36 13.609375 36.449219 13.160156 37 13.160156 C 37.550781 13.160156 38 13.609375 38 14.160156 L 38 16.160156 C 38 16.710938 37.550781 17.160156 37 17.160156 Z M 37 17.160156 "/>
<path style=" stroke:none;fill-rule:nonzero;fill:rgb(0%,0%,0%);fill-opacity:1;" d="M 42 15.730469 C 41.449219 15.730469 41 15.28125 41 14.730469 L 41 12.730469 C 41 12.179688 41.449219 11.730469 42 11.730469 C 42.550781 11.730469 43 12.179688 43 12.730469 L 43 14.730469 C 43 15.28125 42.550781 15.730469 42 15.730469 Z M 42 15.730469 "/>
</g>
</svg>
